<svg xmlns="http://www.w3.org/2000/svg" width="124" height="124" viewBox="0 0 124 124" fill="none">
  <path d="M28.88 28.88L2.58578 55.1742C2.21072 55.5492 2 56.058 2 56.5884V60.7504C2 61.2458 2.1838 61.7234 2.5158 62.091L32.72 95.5314M28.88 28.88L55.1742 2.58578C55.5492 2.21072 56.058 2 56.5884 2H66.4516C66.982 2 67.4908 2.21072 67.8658 2.58578L94.16 28.88M28.88 28.88H94.16M32.72 95.5314L94.16 28.88M32.72 95.5314L55.1644 120.381C55.5436 120.8 56.0828 121.04 56.6486 121.04H66.4516C66.982 121.04 67.4908 120.829 67.8658 120.454L94.16 94.16M32.72 95.5314L94.16 94.16M94.16 28.88L120.454 55.1742C120.829 55.5492 121.04 56.058 121.04 56.5884V66.4516C121.04 66.982 120.829 67.4908 120.454 67.8658L94.16 94.16" stroke="#F1F1F1" stroke-width="2"/>
</svg>