<svg width="138" height="62" viewBox="0 0 138 62" fill="none" xmlns="http://www.w3.org/2000/svg">
<path d="M14.44 14.92L1.29289 28.0671C1.10536 28.2546 1 28.509 1 28.7742V30.8552C1 31.1029 1.0919 31.3417 1.2579 31.5255L16.36 48.2457M14.44 14.92L27.5871 1.77289C27.7746 1.58535 28.029 1.48 28.2942 1.48H33.2258C33.491 1.48 33.7454 1.58535 33.9329 1.77289L47.08 14.92M14.44 14.92H47.08M47.08 14.92L60.2271 28.0671C60.4146 28.2546 60.52 28.509 60.52 28.7742V33.7058C60.52 33.971 60.4146 34.2254 60.2271 34.4129L47.08 47.56M47.08 14.92L16.36 48.2457M16.36 48.2457L27.5822 60.6703C27.7718 60.8802 28.0414 61 28.3243 61H33.2258C33.491 61 33.7454 60.8946 33.9329 60.7071L47.08 47.56M16.36 48.2457L47.08 47.56" stroke="black" stroke-width="2"/>
<path d="M83.44 38H67.44V34.576L78.864 19.28V19.216H67.952V15.6H83.536V19.024L72.048 34.352V34.416H83.44V38ZM91.6248 38H87.8488V15.6H91.6248V38ZM105.7 38H101.988V28.56L94.66 15.6H98.692L103.812 25.136H103.876L109.028 15.6H113.028L105.7 28.56V38ZM130.458 38H126.714L125.37 34.16H116.314L115.002 38H111.258L119.322 15.6H122.394L130.458 38ZM120.89 21.072H120.826L117.434 30.928H124.25L120.89 21.072Z" fill="black"/>
<path d="M59.57 49.8H62.492V50.058H59.846V51.858H62.318V52.104H59.846V54H59.57V49.8ZM65.3653 52.206L66.4993 54H66.1693L65.0473 52.2H63.6253V54H63.3493V49.8H65.2993C66.1633 49.8 66.6673 50.232 66.6673 51.006C66.6673 51.75 66.1813 52.194 65.3653 52.2V52.206ZM65.2933 51.942C66.0073 51.942 66.3853 51.606 66.3853 51.006C66.3853 50.376 66.0133 50.058 65.2753 50.058H63.6253V51.942H65.2933ZM67.1806 51.9C67.1626 50.622 68.1046 49.692 69.3106 49.71C70.5166 49.692 71.4586 50.622 71.4406 51.9C71.4586 53.178 70.5166 54.108 69.3106 54.09C68.1046 54.108 67.1626 53.178 67.1806 51.9ZM71.1526 51.9C71.1526 50.742 70.3666 49.968 69.3106 49.968C68.2546 49.968 67.4686 50.742 67.4686 51.9C67.4686 53.058 68.2546 53.832 69.3106 53.832C70.3666 53.832 71.1526 53.058 71.1526 51.9ZM72.2966 49.8H72.6026L75.4046 53.592H75.4166V49.8H75.6986V54H75.3866L72.5846 50.208H72.5726V54H72.2966V49.8ZM78.0977 50.058H76.4717V49.8H80.0057V50.058H78.3797V54H78.0977V50.058ZM80.7868 49.8H83.7028V50.058H81.0628V51.708H83.5228V51.948H81.0628V53.742H83.7028V54H80.7868V49.8ZM84.6188 49.8H84.9248L87.7268 53.592H87.7388V49.8H88.0208V54H87.7088L84.9068 50.208H84.8948V54H84.6188V49.8ZM89.154 49.8H90.774C92.064 49.8 92.802 50.562 92.802 51.9C92.802 53.25 92.064 54 90.774 54H89.154V49.8ZM90.786 53.742C91.908 53.742 92.52 53.1 92.52 51.9C92.52 50.718 91.896 50.058 90.786 50.058H89.43V53.742H90.786ZM95.3239 49.8H96.9439C98.2339 49.8 98.9719 50.562 98.9719 51.9C98.9719 53.25 98.2339 54 96.9439 54H95.3239V49.8ZM96.9559 53.742C98.0779 53.742 98.6899 53.1 98.6899 51.9C98.6899 50.718 98.0659 50.058 96.9559 50.058H95.5999V53.742H96.9559ZM99.8356 49.8H102.752V50.058H100.112V51.708H102.572V51.948H100.112V53.742H102.752V54H99.8356V49.8ZM103.128 49.8H103.44L105.198 53.67H105.21L106.968 49.8H107.28L105.36 54H105.048L103.128 49.8ZM107.881 49.8H110.797V50.058H108.157V51.708H110.617V51.948H108.157V53.742H110.797V54H107.881V49.8ZM111.713 49.8H111.989V53.742H114.413V54H111.713V49.8ZM114.694 51.9C114.676 50.622 115.618 49.692 116.824 49.71C118.03 49.692 118.972 50.622 118.954 51.9C118.972 53.178 118.03 54.108 116.824 54.09C115.618 54.108 114.676 53.178 114.694 51.9ZM118.666 51.9C118.666 50.742 117.88 49.968 116.824 49.968C115.768 49.968 114.982 50.742 114.982 51.9C114.982 53.058 115.768 53.832 116.824 53.832C117.88 53.832 118.666 53.058 118.666 51.9ZM119.81 49.8H121.796C122.666 49.8 123.2 50.262 123.2 51.054C123.2 51.852 122.684 52.308 121.796 52.308H120.086V54H119.81V49.8ZM121.79 52.05C122.528 52.05 122.918 51.702 122.918 51.054C122.918 50.406 122.534 50.058 121.79 50.058H120.086V52.05H121.79ZM123.941 49.8H126.857V50.058H124.217V51.708H126.677V51.948H124.217V53.742H126.857V54H123.941V49.8ZM129.789 52.206L130.923 54H130.593L129.471 52.2H128.049V54H127.773V49.8H129.723C130.587 49.8 131.091 50.232 131.091 51.006C131.091 51.75 130.605 52.194 129.789 52.2V52.206ZM129.717 51.942C130.431 51.942 130.809 51.606 130.809 51.006C130.809 50.376 130.437 50.058 129.699 50.058H128.049V51.942H129.717Z" fill="black"/>
</svg>