

<svg width="138" height="62" viewBox="0 0 138 62" fill="none" xmlns="http://www.w3.org/2000/svg">
<path d="M14.44 14.44L1.29289 27.5871C1.10536 27.7746 1 28.029 1 28.2942V30.3752C1 30.6229 1.0919 30.8617 1.2579 31.0455L16.36 47.7657M14.44 14.44L27.5871 1.29289C27.7746 1.10536 28.029 1 28.2942 1H33.2258C33.491 1 33.7454 1.10536 33.9329 1.29289L47.08 14.44M14.44 14.44H47.08M47.08 14.44L60.2271 27.5871C60.4146 27.7746 60.52 28.029 60.52 28.2942V33.2258C60.52 33.491 60.4146 33.7454 60.2271 33.9329L47.08 47.08M47.08 14.44L16.36 47.7657M16.36 47.7657L27.5822 60.1903C27.7718 60.4002 28.0414 60.52 28.3243 60.52H33.2258C33.491 60.52 33.7454 60.4146 33.9329 60.2271L47.08 47.08M16.36 47.7657L47.08 47.08" stroke="#F1F1F1" stroke-width="2"/>
<path d="M83.44 37.52H67.44V34.096L78.864 18.8V18.736H67.952V15.12H83.536V18.544L72.048 33.872V33.936H83.44V37.52ZM91.6248 37.52H87.8488V15.12H91.6248V37.52ZM105.7 37.52H101.988V28.08L94.66 15.12H98.692L103.812 24.656H103.876L109.028 15.12H113.028L105.7 28.08V37.52ZM130.458 37.52H126.714L125.37 33.68H116.314L115.002 37.52H111.258L119.322 15.12H122.394L130.458 37.52ZM120.89 20.592H120.826L117.434 30.448H124.25L120.89 20.592Z" fill="#F1F1F1"/>
<path d="M59.57 49.32H62.492V49.578H59.846V51.378H62.318V51.624H59.846V53.52H59.57V49.32ZM65.3653 51.726L66.4993 53.52H66.1693L65.0473 51.72H63.6253V53.52H63.3493V49.32H65.2993C66.1633 49.32 66.6673 49.752 66.6673 50.526C66.6673 51.27 66.1813 51.714 65.3653 51.72V51.726ZM65.2933 51.462C66.0073 51.462 66.3853 51.126 66.3853 50.526C66.3853 49.896 66.0133 49.578 65.2753 49.578H63.6253V51.462H65.2933ZM67.1806 51.42C67.1626 50.142 68.1046 49.212 69.3106 49.23C70.5166 49.212 71.4586 50.142 71.4406 51.42C71.4586 52.698 70.5166 53.628 69.3106 53.61C68.1046 53.628 67.1626 52.698 67.1806 51.42ZM71.1526 51.42C71.1526 50.262 70.3666 49.488 69.3106 49.488C68.2546 49.488 67.4686 50.262 67.4686 51.42C67.4686 52.578 68.2546 53.352 69.3106 53.352C70.3666 53.352 71.1526 52.578 71.1526 51.42ZM72.2966 49.32H72.6026L75.4046 53.112H75.4166V49.32H75.6986V53.52H75.3866L72.5846 49.728H72.5726V53.52H72.2966V49.32ZM78.0977 49.578H76.4717V49.32H80.0057V49.578H78.3797V53.52H78.0977V49.578ZM80.7868 49.32H83.7028V49.578H81.0628V51.228H83.5228V51.468H81.0628V53.262H83.7028V53.52H80.7868V49.32ZM84.6188 49.32H84.9248L87.7268 53.112H87.7388V49.32H88.0208V53.52H87.7088L84.9068 49.728H84.8948V53.52H84.6188V49.32ZM89.154 49.32H90.774C92.064 49.32 92.802 50.082 92.802 51.42C92.802 52.77 92.064 53.52 90.774 53.52H89.154V49.32ZM90.786 53.262C91.908 53.262 92.52 52.62 92.52 51.42C92.52 50.238 91.896 49.578 90.786 49.578H89.43V53.262H90.786ZM95.3239 49.32H96.9439C98.2339 49.32 98.9719 50.082 98.9719 51.42C98.9719 52.77 98.2339 53.52 96.9439 53.52H95.3239V49.32ZM96.9559 53.262C98.0779 53.262 98.6899 52.62 98.6899 51.42C98.6899 50.238 98.0659 49.578 96.9559 49.578H95.5999V53.262H96.9559ZM99.8356 49.32H102.752V49.578H100.112V51.228H102.572V51.468H100.112V53.262H102.752V53.52H99.8356V49.32ZM103.128 49.32H103.44L105.198 53.19H105.21L106.968 49.32H107.28L105.36 53.52H105.048L103.128 49.32ZM107.881 49.32H110.797V49.578H108.157V51.228H110.617V51.468H108.157V53.262H110.797V53.52H107.881V49.32ZM111.713 49.32H111.989V53.262H114.413V53.52H111.713V49.32ZM114.694 51.42C114.676 50.142 115.618 49.212 116.824 49.23C118.03 49.212 118.972 50.142 118.954 51.42C118.972 52.698 118.03 53.628 116.824 53.61C115.618 53.628 114.676 52.698 114.694 51.42ZM118.666 51.42C118.666 50.262 117.88 49.488 116.824 49.488C115.768 49.488 114.982 50.262 114.982 51.42C114.982 52.578 115.768 53.352 116.824 53.352C117.88 53.352 118.666 52.578 118.666 51.42ZM119.81 49.32H121.796C122.666 49.32 123.2 49.782 123.2 50.574C123.2 51.372 122.684 51.828 121.796 51.828H120.086V53.52H119.81V49.32ZM121.79 51.57C122.528 51.57 122.918 51.222 122.918 50.574C122.918 49.926 122.534 49.578 121.79 49.578H120.086V51.57H121.79ZM123.941 49.32H126.857V49.578H124.217V51.228H126.677V51.468H124.217V53.262H126.857V53.52H123.941V49.32ZM129.789 51.726L130.923 53.52H130.593L129.471 51.72H128.049V53.52H127.773V49.32H129.723C130.587 49.32 131.091 49.752 131.091 50.526C131.091 51.27 130.605 51.714 129.789 51.72V51.726ZM129.717 51.462C130.431 51.462 130.809 51.126 130.809 50.526C130.809 49.896 130.437 49.578 129.699 49.578H128.049V51.462H129.717Z" fill="#F1F1F1"/>
</svg>
